<svg width="27" height="28" viewBox="0 0 27 28" fill="none" xmlns="http://www.w3.org/2000/svg">
<path d="M25.2551 14.0422C25.2551 20.5343 19.9922 25.7973 13.5 25.7973C7.00784 25.7973 1.7449 20.5343 1.7449 14.0422C1.7449 7.55002 7.00784 2.28708 13.5 2.28708C19.9922 2.28708 25.2551 7.55002 25.2551 14.0422Z" fill="#EFE3AF"/>
<path d="M13.5 0.5C6.04517 0.5 0 6.54517 0 14C0 21.4548 6.04517 27.5 13.5 27.5C20.9548 27.5 27 21.4548 27 14C27 6.54517 20.9569 0.5 13.5 0.5ZM17.8332 8.33482C17.3347 8.33073 16.8362 8.32461 16.3397 8.33482C16.113 8.34095 15.8842 8.36547 15.6635 8.41245C15.2365 8.50643 14.9852 8.78836 14.8994 9.21126C14.8647 9.38083 14.8463 9.55857 14.8443 9.73222C14.8382 10.3696 14.8422 11.007 14.8422 11.6444C14.8422 11.6628 14.8443 11.6833 14.8463 11.7119H14.9546C15.8719 11.7119 16.7912 11.7119 17.7085 11.7119C17.8291 11.7119 17.8311 11.7119 17.8168 11.8263C17.7514 12.3268 17.684 12.8273 17.6207 13.3299C17.5676 13.7487 17.5145 14.1675 17.4634 14.5863C17.445 14.7457 17.4491 14.7457 17.2877 14.7457C16.5093 14.7457 15.7289 14.7457 14.9505 14.7457H14.8422V14.8662C14.8422 17.3505 14.8422 19.8347 14.8422 22.319C14.8422 22.3803 14.8422 22.4416 14.8422 22.5029H11.6879C11.6879 22.462 11.692 22.4191 11.692 22.3783C11.692 19.8654 11.692 17.3546 11.692 14.8417V14.7457H11.5837C10.7828 14.7457 9.98199 14.7457 9.1791 14.7457C9.06878 14.7457 9.06674 14.7457 9.06674 14.6374C9.06674 13.6976 9.06674 12.7558 9.06674 11.8161C9.06674 11.7303 9.0933 11.7078 9.17501 11.7098C9.97586 11.7119 10.7767 11.7098 11.5796 11.7098H11.692C11.692 11.6771 11.692 11.6485 11.692 11.6199C11.692 10.8375 11.6879 10.0571 11.6981 9.27459C11.7063 8.64535 11.8288 8.03655 12.1026 7.46656C12.4744 6.69227 13.0587 6.13862 13.8555 5.80766C14.3867 5.58702 14.9423 5.48487 15.5144 5.49304C16.1702 5.50325 16.826 5.53186 17.4818 5.55637C17.6043 5.56046 17.7249 5.58089 17.8475 5.58702C17.9149 5.5911 17.9373 5.61562 17.9373 5.68304C17.9353 6.07324 17.9373 6.46141 17.9373 6.85162C17.9373 7.31129 17.9373 7.76892 17.9373 8.22859C17.9373 8.30826 17.9149 8.33278 17.8352 8.33278L17.8332 8.33482Z" fill="#FF4400"/>
</svg>
