<svg width="27" height="28" viewBox="0 0 27 28" fill="none" xmlns="http://www.w3.org/2000/svg">
<path d="M25.2541 14.042C25.2541 20.5104 20.0104 25.7541 13.542 25.7541C7.07366 25.7541 1.83 20.5104 1.83 14.042C1.83 7.57366 7.07366 2.33 13.542 2.33C20.0104 2.33 25.2541 7.57366 25.2541 14.042Z" fill="#EFE3AF"/>
<path d="M13.5657 16.4775C12.1886 16.4775 11.0686 15.3575 11.0686 13.9804C11.0686 12.6033 12.1886 11.4834 13.5657 11.4834C14.9427 11.4834 16.0627 12.6033 16.0627 13.9804C16.0627 15.3575 14.9427 16.4775 13.5657 16.4775Z" fill="#FF4400"/>
<path fill-rule="evenodd" clip-rule="evenodd" d="M7.07465 10.8209C7.07465 9.02019 8.53957 7.55527 10.3403 7.55527H16.6602C18.4609 7.55527 19.9258 9.02019 19.9258 10.8209V17.1408C19.9258 18.9416 18.4609 20.4065 16.6602 20.4065H10.3403C8.53957 20.4065 7.07465 18.9416 7.07465 17.1408V10.8209ZM16.7627 9.8199C16.7627 9.3075 17.1781 8.89209 17.6905 8.89209C18.2029 8.89209 18.6183 9.3075 18.6183 9.8199C18.6183 10.3323 18.2029 10.7477 17.6905 10.7477C17.1781 10.7477 16.7627 10.3323 16.7627 9.8199ZM13.5657 10.0825C11.4163 10.0825 9.66776 11.8311 9.66776 13.9804C9.66776 16.1298 11.4163 17.8783 13.5657 17.8783C15.715 17.8783 17.4636 16.1298 17.4636 13.9804C17.4636 11.8311 15.715 10.0825 13.5657 10.0825Z" fill="#FF4400"/>
<path fill-rule="evenodd" clip-rule="evenodd" d="M26.997 13.7196C27.1519 21.1738 21.2346 27.3422 13.7804 27.497C6.32616 27.6519 0.157813 21.7346 0.00297086 14.2804C-0.151871 6.82616 5.76543 0.657813 13.2196 0.502971C20.6738 0.348129 26.8422 6.26543 26.997 13.7196ZM10.3403 21.8952H16.6602C19.2817 21.8952 21.4146 19.7623 21.4146 17.1408V10.8209C21.4146 8.19943 19.2817 6.06656 16.6602 6.06656H10.3403C7.71881 6.06656 5.58594 8.19943 5.58594 10.8209V17.1408C5.58594 19.7623 7.71881 21.8952 10.3403 21.8952Z" fill="#FF4400"/>
</svg>
