<svg width="47" height="60" viewBox="0 0 47 60" fill="none" xmlns="http://www.w3.org/2000/svg">
<path fill-rule="evenodd" clip-rule="evenodd" d="M23.5 59.7981C24.7455 59.7981 47 36.2011 47 23.3212C47 10.4413 36.4786 0 23.5 0C10.5213 0 0 10.4413 0 23.3212C0 36.2011 22.2545 59.7981 23.5 59.7981ZM23.5 34.9857C30.0802 34.9857 35.4146 29.6919 35.4146 23.1617C35.4146 16.6316 30.0802 11.3379 23.5 11.3379C16.9198 11.3379 11.5855 16.6316 11.5855 23.1617C11.5855 29.6919 16.9198 34.9857 23.5 34.9857Z" fill="#7EBFA0"/>
<path fill-rule="evenodd" clip-rule="evenodd" d="M0 23.4C0 36.3234 22.0402 60 23.2736 60V35.1039C16.7568 35.1035 11.4739 29.7921 11.4739 23.2399C11.4739 16.6878 16.7568 11.3762 23.2736 11.3761V0C10.4199 0 0 10.4765 0 23.4Z" fill="#68B18E"/>
</svg>
