<svg width="205" height="28" viewBox="0 0 205 28" fill="none" xmlns="http://www.w3.org/2000/svg">
<path d="M194.487 12.8566C194.589 12.686 194.692 12.5154 194.897 12.2083C193.187 12.6177 192.4 11.7989 191.853 10.5365C191.682 10.0929 191.682 9.6835 191.989 9.34231C193.495 7.46577 195.239 5.82806 197.053 4.2586C198.079 3.33739 199.105 2.4503 200.131 1.56321C200.371 1.35849 200.2 1.25614 200.097 1.08554C200.987 1.01731 201.739 1.25614 202.355 1.83616C202.629 2.10911 202.937 2.48442 202.218 2.58677C201.842 2.65501 201.774 3.03032 201.568 3.23503C200.029 4.77038 198.524 6.27161 197.018 7.80696C196.847 7.97755 196.71 8.21639 196.505 8.45522C197.531 8.31874 199.721 6.88575 199.789 6.30573C200.303 6.4422 200.713 6.20337 201.089 5.96454C201.603 5.65747 202.15 5.93042 202.184 6.54456C202.184 6.91987 202.218 7.22694 202.56 7.49989C202.766 7.67048 202.731 8.11403 202.458 8.07991C201.603 7.97755 201.226 8.62581 200.884 9.10348C199.276 11.3553 197.224 13.266 195.821 15.6543C194.829 17.3602 193.905 19.0662 193.529 21.011C193.358 21.8639 193.632 22.7169 194.282 23.2628C194.863 23.7746 195.547 23.4334 196.163 23.1946C199.413 21.8981 201.979 18.1109 201.945 14.6649C201.945 14.426 201.876 14.1872 201.808 13.9484C201.739 13.8119 201.534 13.6754 201.671 13.5048C201.808 13.3001 202.047 13.4025 202.253 13.4707C204.271 14.1189 204.853 15.859 204.305 18.1791C203.792 20.3286 202.355 21.8639 200.679 23.1605C199.618 23.9793 198.592 24.764 197.292 25.1393C195.342 25.7535 193.837 25.037 192.605 23.5358C190.997 21.6251 190.895 19.5438 191.989 17.3261C192.742 15.7908 193.529 14.2554 194.487 12.8566Z" fill="#FFF9DE"/>
<path d="M177.907 21.4204C177.839 22.3416 177.976 23.2287 178.01 24.3546C178.899 23.5358 179.31 22.6828 179.686 21.8639C181.397 18.2132 182.731 14.426 184.27 10.7071C184.955 9.00112 185.707 7.36341 186.152 5.58923C186.255 5.21393 186.323 4.83862 186.357 4.46331C186.391 4.01977 186.494 3.74681 187.007 3.67858C187.418 3.61034 187.452 3.26915 187.418 2.92796C187.349 2.55266 187.52 2.48442 187.863 2.41618C189.915 2.07499 191.01 3.61034 190.394 5.41864C189.641 7.63637 188.82 9.81997 188.307 12.0718C187.486 15.5861 186.734 19.1003 187.349 22.7169C187.384 22.8875 187.418 23.0581 187.452 23.2287C187.52 23.5358 187.794 23.8428 187.486 24.1499C187.178 24.457 186.802 24.3205 186.426 24.2181C185.194 23.8769 184.373 22.6145 184.27 21.0451C184.27 20.4309 184.202 19.7827 184.168 18.9979C183.518 20.3627 182.97 21.6251 182.355 22.8193C181.842 23.8428 181.363 24.8664 180.542 25.6852C178.831 27.323 175.992 26.5382 175.376 24.2523C174.897 22.5804 175.068 20.8404 175.273 19.1685C175.649 15.5861 176.505 12.1401 177.668 8.76229C178.249 7.02223 178.797 5.24805 179.31 3.47386C179.447 3.06444 179.584 2.68913 179.31 2.21146C179.105 1.80204 179.584 1.83616 179.823 1.87028C181.192 1.93852 181.807 2.79149 181.568 4.36095C181.226 6.68104 180.439 8.86465 179.823 11.0824C178.865 14.4601 178.113 17.9061 177.907 21.4204Z" fill="#FFF9DE"/>
<path d="M170.15 10.8435C171.313 9.27407 171.348 7.49989 171.519 5.72571C169.603 7.49989 168.611 9.71762 167.482 11.833C166.182 14.2895 165.292 16.8826 164.745 19.578C164.54 20.5674 164.505 21.6251 164.54 22.6487C164.608 23.604 165.155 24.3205 166.216 24.6617C167.105 25.0029 167.755 24.4228 168.234 23.9452C170.766 21.4886 172.75 18.7591 173.708 15.5519C173.742 15.3813 173.742 15.2108 173.742 15.0743C173.742 14.7331 173.64 14.3578 174.119 14.2554C174.598 14.0848 174.803 14.4601 175.076 14.7672C176.684 16.5755 175.932 18.3838 174.94 20.158C173.811 22.2051 172.34 24.1158 170.492 25.6511C169.432 26.5382 167.721 26.8112 166.113 26.2994C162.213 25.0029 160.948 23.024 161.598 19.6462C162.248 16.0978 163.548 12.7883 165.292 9.54702C166.113 7.97755 167.003 6.47633 168.132 5.04333C168.508 4.53155 169.363 4.29272 169.261 3.5421C169.261 3.50798 169.5 3.40563 169.637 3.40563C171.04 3.33739 172.442 3.40563 173.742 3.95153C174.392 4.22448 174.734 4.66802 174.7 5.28216C174.598 7.36341 174.392 9.44466 173.229 11.3212C172.921 11.833 172.476 12.1401 171.826 12.0718C171.142 11.9695 170.458 11.7647 169.979 11.2871C169.774 11.1165 170.048 11.0141 170.15 10.8435Z" fill="#FFF9DE"/>
<path d="M129.647 24.9688C129.51 24.6617 129.51 24.2864 129.168 23.9793C128.963 24.6617 128.758 25.2758 128.86 25.9241C128.963 26.6406 128.621 26.8112 128.005 26.6406C126.637 26.2312 125.953 25.1735 126.226 23.8087C126.363 23.0922 126.466 22.3416 126.808 21.6933C127.184 20.9427 126.705 20.158 127.013 19.4074C127.458 19.7144 127.595 19.3391 127.697 19.0662C128.142 18.0085 128.621 16.9508 129.032 15.859C129.853 13.6072 130.879 11.4236 131.905 9.23995C132.316 8.35286 132.76 7.43165 133.239 6.4422C132.692 6.54456 132.453 6.78339 132.213 7.02223C130.947 8.35286 129.476 9.47878 128.621 11.1506C128.245 11.9012 127.629 11.7306 127.047 11.3212C126.603 10.98 126.158 10.6729 126.637 9.92233C128.518 7.12458 130.81 4.77038 133.821 3.16679C134.06 3.03032 134.3 2.96208 134.539 2.85972C134.847 2.72325 135.155 2.62089 134.779 2.21146C134.608 1.97263 134.71 1.69968 135.018 1.76792C137.618 2.38206 140.595 1.93852 142.51 4.42919C143.16 5.24805 143.263 6.91987 142.784 7.84108C141.792 9.75174 140.424 11.3212 138.918 12.7883C138.781 12.9248 138.713 13.0613 138.542 13.266C139.568 13.4707 140.526 13.7778 141.381 14.2554C143.605 15.5178 144.392 17.9744 143.229 20.1921C141.895 22.7169 139.91 24.6276 137.242 25.617C135.703 26.2311 134.095 26.9476 132.316 26.8453C130.947 26.7771 130.16 26.2653 129.647 24.9688ZM141.381 15.9614C140.868 15.006 139.842 15.0402 138.918 14.9719C138.405 14.9719 137.96 15.1084 137.516 15.2449C135.908 15.6543 134.574 16.6096 133.171 17.3944C131.632 18.2815 130.468 19.4415 130.024 21.2157C129.784 22.1369 129.271 23.024 130.366 23.7405L130.4 23.7746C130.605 24.8323 131.46 24.5934 132.076 24.4911C133.855 24.1499 135.463 23.3652 137.037 22.444C138.542 21.5569 139.91 20.5674 140.868 19.1003C141.518 18.145 141.963 17.0532 141.381 15.9614ZM134.437 10.8435C133.992 11.7989 133.342 12.6518 133.068 13.8119C135.121 12.2083 137.037 10.6047 138.679 8.72817C139.5 7.77284 140.287 6.78339 140.766 5.62335C141.074 4.94098 141.005 4.42919 140.15 4.2586C139.363 4.05388 138.61 3.98565 137.824 4.19036C137.584 4.22448 137.413 4.29272 137.345 4.53155C136.66 6.78339 135.395 8.72817 134.437 10.8435Z" fill="#FFF9DE"/>
<path d="M118.314 19.9874C117.972 20.2945 117.459 20.4309 117.185 20.9427C117.87 21.1474 118.485 21.318 119.101 21.4545C121.291 21.9322 123.446 22.5463 125.567 23.2969C126.32 23.5699 127.175 25.4464 126.901 26.197C126.764 26.6065 126.456 26.6747 126.149 26.5041C124.062 25.4123 121.838 24.8323 119.58 24.3887C118.143 24.0817 116.672 23.9111 115.235 23.604C114.928 23.5358 114.791 23.7405 114.756 24.0134C114.654 24.457 114.551 24.9005 114.517 25.3441C114.414 25.9582 114.038 26.0947 113.525 25.9923C112.43 25.7194 111.883 24.7982 111.335 23.9452C111.199 23.7405 111.37 23.5699 111.507 23.3652C111.883 22.8534 112.191 22.3416 111.472 21.8298C111.267 21.6933 111.164 21.4545 111.438 21.318C112.499 20.7721 112.499 19.6803 112.738 18.7591C113.696 14.9037 114.962 11.1506 116.262 7.36341C116.364 7.05634 116.467 6.71516 116.604 6.30573C115.988 6.6128 115.92 7.1587 115.68 7.63637C115.167 8.59169 114.722 8.76229 113.764 8.18227C113.354 7.97755 112.43 7.90932 112.841 7.19282C113.32 6.33985 113.593 5.38452 114.346 4.66802C115.372 3.7127 116.399 2.79149 117.699 2.21146C118.417 1.90439 118.554 1.15378 118.041 0.539642C117.972 0.403166 117.835 0.300808 117.938 0.130214C118.041 -0.0403798 118.212 -0.00626141 118.349 0.0278591C119.272 0.232572 120.128 0.539642 120.675 1.39261C120.88 1.76792 121.291 1.69968 121.599 1.7338C123.549 2.07499 125.362 2.62089 126.73 4.15624C128.167 5.72571 128.509 7.49989 127.756 9.47879C126.799 11.9353 124.985 13.8119 123.206 15.6202C121.667 17.1896 119.991 18.5885 118.314 19.9874ZM116.604 16.3367C116.535 16.5755 116.433 16.7802 116.57 17.0532C116.706 16.9849 116.843 16.9167 116.912 16.8485C119.067 15.006 121.222 13.1636 123.001 10.98C124.062 9.6835 125.156 8.4211 125.464 6.68104C125.704 5.38452 125.293 4.53155 124.164 4.05388C123.241 3.64446 122.249 3.5421 121.222 3.74681C120.983 3.81505 120.778 3.91741 120.675 4.19036C119.238 8.21639 117.835 12.2424 116.604 16.3367Z" fill="#FFF9DE"/>
<path d="M112.313 3.03032C112.758 3.5421 112.963 4.15624 112.929 4.90686C112.416 7.02223 111.869 9.17171 111.39 11.3212C110.466 15.4837 109.713 19.6462 109.371 23.9111C109.303 24.7299 109.166 25.5488 109.063 26.3676C108.995 26.777 108.721 26.9135 108.311 26.9476C107.284 26.9818 106.429 26.0947 106.463 25.1052C106.566 23.1605 106.84 21.2498 107.113 19.3391C107.182 18.8615 107.045 18.7591 106.566 18.8956C104.89 19.4415 103.384 20.3968 101.742 21.0451C101.537 21.1133 101.503 21.3521 101.435 21.5227C100.99 22.5122 100.579 23.5358 100.169 24.5593C99.8266 25.3099 99.2108 25.4464 98.4924 25.2076C97.8082 25.0029 97.2266 24.5252 96.7135 23.9793C96.6109 23.8428 96.5082 23.6722 96.6451 23.5016C96.7477 23.331 96.9187 23.3652 97.0556 23.4334C97.3293 23.5358 97.5003 23.4675 97.603 23.1946C98.1845 21.7616 98.7661 20.3627 99.2451 18.8615C99.5529 17.9403 100.169 17.0191 100.613 16.0637C101.811 13.5389 103.282 11.1847 104.719 8.83052C105.984 6.81751 107.353 4.90686 108.379 2.79149C108.516 2.51853 108.756 2.2797 108.619 1.90439C108.55 1.7338 108.721 1.63145 108.892 1.59733C110.021 1.29026 111.219 1.22202 111.869 2.58677C111.971 2.75737 112.177 2.85972 112.313 3.03032ZM108.687 10.4682C108.892 9.41055 109.269 8.38698 109.337 7.12458C106.771 10.3659 104.958 13.8119 103.145 17.4285C103.384 17.3944 103.453 17.3944 103.521 17.3602C104.856 17.0532 106.087 16.2343 107.49 16.132C107.661 16.132 107.661 15.9614 107.661 15.8249C108.003 14.0507 108.379 12.2424 108.687 10.4682Z" fill="#FFF9DE"/>
<path d="M84.479 24.9688C84.3422 24.6617 84.3422 24.2864 84.0001 23.9793C83.7948 24.6617 83.5896 25.2758 83.6922 25.9241C83.7948 26.6406 83.4527 26.8112 82.8369 26.6406C81.4685 26.2312 80.7843 25.1735 81.058 23.8087C81.1948 23.0922 81.2975 22.3416 81.6396 21.6933C82.0159 20.9427 81.537 20.158 81.8448 19.4074C82.2896 19.7144 82.4264 19.3391 82.5291 19.0662C82.9738 18.0085 83.4527 16.9508 83.8633 15.859C84.6843 13.6072 85.7106 11.4236 86.7369 9.23995C87.1474 8.35286 87.5922 7.43165 88.0711 6.4422C87.5238 6.54456 87.2843 6.78339 87.0448 7.02223C85.779 8.35286 84.308 9.47878 83.4527 11.1506C83.0764 11.9012 82.4606 11.7306 81.8791 11.3212C81.4343 10.98 80.9896 10.6729 81.4685 9.92233C83.3501 7.12458 85.6422 4.77038 88.6527 3.16679C88.8922 3.03032 89.1316 2.96208 89.3711 2.85972C89.679 2.72325 89.9869 2.62089 89.6106 2.21146C89.4395 1.97263 89.5422 1.69968 89.8501 1.76792C92.45 2.38206 95.4263 1.93852 97.3421 4.42919C97.9921 5.24805 98.0947 6.91987 97.6158 7.84108C96.6237 9.75174 95.2553 11.3212 93.75 12.7883C93.6132 12.9248 93.5448 13.0613 93.3737 13.266C94.4 13.4707 95.3579 13.7778 96.2132 14.2554C98.4368 15.5178 99.2237 17.9744 98.0605 20.1921C96.7263 22.7169 94.7421 24.6276 92.0737 25.617C90.5342 26.2311 88.9264 26.9476 87.1474 26.8453C85.779 26.7771 84.9922 26.2653 84.479 24.9688ZM96.2132 15.9614C95.7 15.006 94.6737 15.0402 93.75 14.9719C93.2369 14.9719 92.7921 15.1084 92.3474 15.2449C90.7395 15.6543 89.4053 16.6096 88.0027 17.3944C86.4632 18.2815 85.3001 19.4415 84.8554 21.2157C84.6159 22.1369 84.1027 23.024 85.1975 23.7405L85.2317 23.7746C85.4369 24.8323 86.2922 24.5934 86.908 24.4911C88.6869 24.1499 90.2948 23.3652 91.8685 22.444C93.3737 21.5569 94.7421 20.5674 95.7 19.1003C96.35 18.145 96.7947 17.0532 96.2132 15.9614ZM89.2685 10.8435C88.8237 11.7989 88.1737 12.6518 87.9001 13.8119C89.9527 12.2083 91.8685 10.6047 93.5106 8.72817C94.3316 7.77284 95.1184 6.78339 95.5974 5.62335C95.9053 4.94098 95.8368 4.42919 94.9816 4.2586C94.1948 4.05388 93.4421 3.98565 92.6553 4.19036C92.4158 4.22448 92.2448 4.29272 92.1764 4.53155C91.4921 6.78339 90.2264 8.72817 89.2685 10.8435Z" fill="#FFF9DE"/>
<path d="M60.3782 6.78339C60.4466 6.57868 60.515 6.37397 60.6518 5.8963C59.7966 6.78339 58.9755 7.29518 58.6676 8.31874C58.565 8.59169 58.2913 8.72817 58.0176 8.69405C57.265 8.62581 56.615 8.31874 56.1361 7.73872C55.965 7.53401 55.9992 7.29518 56.1361 7.09046C58.0861 4.70214 60.2071 2.51853 63.3887 1.87028C67.6992 0.983187 70.9833 3.57622 71.1544 7.94344C71.2912 11.4918 70.1623 14.6307 67.9728 17.3944C65.5781 20.4309 62.8071 23.0581 59.7966 25.4464C59.0782 26.0264 58.2913 26.5041 57.3676 26.7771C56.7519 26.9818 56.2729 26.8112 55.794 26.3676C55.144 25.7535 54.9387 24.9346 54.6992 24.1499C54.6308 23.9793 54.6992 23.7746 54.7677 23.604C55.9308 20.9086 56.3755 18.0085 57.3676 15.279C58.394 12.4471 59.3861 9.61526 60.3782 6.78339ZM59.3176 18.145C58.8729 19.6462 58.5308 21.1474 58.0519 22.8534C58.394 22.6487 58.5308 22.5804 58.6334 22.4781C61.5755 20.1239 64.2439 17.4967 66.4676 14.4601C68.1781 12.1059 69.2044 9.5129 69.0676 6.51044C68.9649 4.90686 68.5544 4.15624 67.4597 3.81505C66.365 3.50798 65.2702 3.64446 64.1755 3.91741C64.0387 3.95153 63.936 4.05388 63.9702 4.22448C64.2439 5.24805 63.6281 6.0669 63.3202 6.95399C61.9518 10.6729 60.4808 14.3578 59.3176 18.145Z" fill="#FFF9DE"/>
<path d="M48.3268 10.98C48.361 10.4682 48.5662 9.92233 48.2241 9.37643C47.711 11.6624 47.1978 13.9484 46.6847 16.2343C46.0005 19.4074 45.3847 22.5804 45.0768 25.8217C45.0426 26.2653 44.8373 26.5041 44.3584 26.4359C42.6137 26.1288 41.9637 25.617 42.2373 23.8428C42.7505 20.4651 43.4005 17.1214 44.1531 13.7778C44.7347 11.1506 45.4189 8.52346 46.0689 5.8963C46.2057 5.41864 46.2742 5.00921 46.0347 4.53155C45.7952 4.01977 45.9663 3.7127 46.5478 3.61034C48.2584 3.30327 50.2426 3.78093 50.7557 4.94098C51.132 5.75983 51.2004 6.6128 51.1662 7.46577C51.0978 10.8435 50.9268 14.2213 50.8241 17.5991C50.7899 18.9979 50.8241 20.3627 50.9268 21.7275C51.5768 18.8615 52.2267 15.9614 52.911 13.0954C53.8004 9.34231 55.0662 5.75983 56.6741 2.2797C56.8451 1.93852 56.982 1.59733 56.3662 1.56321C56.1267 1.56321 56.1609 1.35849 56.1267 1.1879C56.0925 0.949067 56.1951 0.812593 56.4346 0.778472C57.3925 0.607878 58.3162 0.403166 59.3083 0.57376C59.9925 0.710236 60.232 1.1879 59.9241 1.83616C58.3504 5.3504 56.7767 8.86465 55.8873 12.5836C55.5109 14.1531 55.203 15.6884 54.8267 17.2579C54.2794 19.6121 53.732 21.9663 53.1162 24.2864C52.911 25.1052 52.0215 25.5147 51.2346 25.2417C50.5162 25.0029 49.832 24.6958 49.1136 24.457C48.8741 24.3546 48.7715 24.2181 48.6689 23.9793C47.882 22.171 47.882 20.2603 47.9505 18.3497C48.0531 15.8931 48.2241 13.4366 48.3268 10.98Z" fill="#FFF9DE"/>
<path d="M42.189 3.03032C42.6337 3.5421 42.839 4.15624 42.8048 4.90686C42.2916 7.02223 41.7442 9.17171 41.2653 11.3212C40.3416 15.4837 39.589 19.6462 39.2469 23.9111C39.1785 24.7299 39.0416 25.5488 38.939 26.3676C38.8706 26.777 38.5969 26.9135 38.1864 26.9476C37.1601 26.9818 36.3048 26.0947 36.339 25.1052C36.4416 23.1605 36.7153 21.2498 36.989 19.3391C37.0574 18.8615 36.9206 18.7591 36.4416 18.8956C34.7653 19.4415 33.2601 20.3968 31.618 21.0451C31.4127 21.1133 31.3785 21.3521 31.3101 21.5227C30.8654 22.5122 30.4548 23.5358 30.0443 24.5593C29.7022 25.3099 29.0864 25.4464 28.368 25.2076C27.6838 25.0029 27.1022 24.5252 26.5891 23.9793C26.4864 23.8428 26.3838 23.6722 26.5207 23.5016C26.6233 23.331 26.7943 23.3652 26.9312 23.4334C27.2049 23.5358 27.3759 23.4675 27.4785 23.1946C28.0601 21.7616 28.6417 20.3627 29.1206 18.8615C29.4285 17.9403 30.0443 17.0191 30.489 16.0637C31.6864 13.5389 33.1574 11.1847 34.5943 8.83052C35.8601 6.81751 37.2285 4.90686 38.2548 2.79149C38.3916 2.51853 38.6311 2.2797 38.4943 1.90439C38.4258 1.7338 38.5969 1.63145 38.7679 1.59733C39.8969 1.29026 41.0942 1.22202 41.7442 2.58677C41.8469 2.75737 42.0521 2.85972 42.189 3.03032ZM38.5627 10.4682C38.7679 9.41055 39.1443 8.38698 39.2127 7.12458C36.6469 10.3659 34.8338 13.8119 33.0206 17.4285C33.2601 17.3944 33.3285 17.3944 33.3969 17.3602C34.7311 17.0532 35.9627 16.2343 37.3653 16.132C37.5364 16.132 37.5364 15.9614 37.5364 15.8249C37.8785 14.0507 38.2548 12.2424 38.5627 10.4682Z" fill="#FFF9DE"/>
<path d="M20.6613 19.9874C20.3192 20.2945 19.8061 20.4309 19.5324 20.9427C20.2166 21.1474 20.8324 21.318 21.4482 21.4545C23.6376 21.9322 25.7929 22.5463 27.9139 23.2969C28.6665 23.5699 29.5218 25.4464 29.2481 26.197C29.1113 26.6065 28.8034 26.6747 28.4955 26.5041C26.4087 25.4123 24.185 24.8323 21.9271 24.3887C20.4903 24.0817 19.0192 23.9111 17.5824 23.604C17.2745 23.5358 17.1377 23.7405 17.1035 24.0134C17.0008 24.457 16.8982 24.9005 16.864 25.3441C16.7614 25.9582 16.3851 26.0947 15.8719 25.9923C14.7772 25.7194 14.2298 24.7982 13.6824 23.9452C13.5456 23.7405 13.7167 23.5699 13.8535 23.3652C14.2298 22.8534 14.5377 22.3416 13.8193 21.8298C13.614 21.6933 13.5114 21.4545 13.7851 21.318C14.8456 20.7721 14.8456 19.6803 15.0851 18.7591C16.0429 14.9037 17.3087 11.1506 18.6087 7.36341C18.7114 7.05634 18.814 6.71516 18.9508 6.30573C18.335 6.6128 18.2666 7.1587 18.0271 7.63637C17.514 8.59169 17.0693 8.76229 16.1114 8.18227C15.7008 7.97755 14.7772 7.90932 15.1877 7.19282C15.6666 6.33985 15.9403 5.38452 16.6929 4.66802C17.7193 3.7127 18.7456 2.79149 20.0456 2.21146C20.764 1.90439 20.9008 1.15378 20.3877 0.539642C20.3192 0.403166 20.1824 0.300808 20.285 0.130214C20.3877 -0.0403798 20.5587 -0.00626141 20.6955 0.0278591C21.6192 0.232572 22.4745 0.539642 23.0219 1.39261C23.2271 1.76792 23.6376 1.69968 23.9455 1.7338C25.8955 2.07499 27.7087 2.62089 29.0771 4.15624C30.5139 5.72571 30.856 7.49989 30.1034 9.47879C29.1455 11.9353 27.3323 13.8119 25.5534 15.6202C24.0139 17.1896 22.3376 18.5885 20.6613 19.9874ZM18.9508 16.3367C18.8824 16.5755 18.7798 16.7802 18.9166 17.0532C19.0535 16.9849 19.1903 16.9167 19.2587 16.8485C21.414 15.006 23.5692 13.1636 25.3482 10.98C26.4087 9.6835 27.5034 8.4211 27.8113 6.68104C28.0508 5.38452 27.6402 4.53155 26.5113 4.05388C25.5876 3.64446 24.5955 3.5421 23.5692 3.74681C23.3297 3.81505 23.1245 3.91741 23.0219 4.19036C21.585 8.21639 20.1824 12.2424 18.9508 16.3367Z" fill="#FFF9DE"/>
<path d="M8.10322 19.885C8.65059 18.9638 9.26637 18.0767 9.6769 16.9167C9.0269 17.2579 8.47953 17.4967 7.96638 17.8038C7.24796 18.2815 6.52955 18.2473 5.87955 17.7355C5.19535 17.2238 5.02429 16.439 5.09272 15.6202C5.12693 15.4496 5.19535 15.3131 5.40061 15.3472C5.64008 15.3472 5.74271 15.4837 5.46903 15.9272C6.49534 15.4155 7.28217 15.006 8.10322 14.5966C9.26637 14.0507 10.4637 13.4366 11.6611 12.9589C12.7216 12.5154 14.3295 14.0166 14.1927 15.1766C14.0216 16.3367 13.4058 17.3261 12.9953 18.4179C11.8664 21.2498 11.0795 24.1499 10.5664 27.1182C10.4637 27.6983 10.1558 28.1759 9.50584 27.9371C8.89006 27.6983 7.96638 27.63 8.10322 26.5723C8.17164 25.7194 8.27427 24.8664 8.41111 23.9793C7.93217 24.0817 7.76112 24.3887 7.55586 24.6276C6.56376 25.6511 5.46903 26.5041 3.96378 26.0264C2.35589 25.5147 1.29537 24.3546 0.850639 22.6828C0.200643 20.2603 0.542746 17.9061 1.15853 15.5519C1.94537 12.4812 3.10852 9.58114 4.81903 6.91987C6.11902 4.87274 7.41902 2.8256 9.57426 1.42673C9.40321 1.35849 9.26637 1.32438 9.12953 1.25614C9.16374 1.22202 9.19795 1.1879 9.23216 1.1879C10.6348 1.05142 12.0374 0.914948 13.3716 1.59733C14.0216 1.93851 14.2953 2.4503 14.2269 3.23503C14.0558 5.38452 13.6795 7.46577 12.7216 9.41055C12.0716 10.8094 11.1137 11.0483 9.98479 10.0588C9.81374 9.88821 9.60847 9.71762 9.81374 9.41055C10.7032 8.25051 10.9769 6.85163 11.2506 5.48688C11.4216 4.63391 11.5243 3.81505 11.6611 2.8256C10.9769 3.09856 10.6348 3.5421 10.2585 3.95153C7.72691 6.57868 5.91376 9.61526 4.68219 13.0271C3.69009 15.7567 2.90326 18.4862 2.97168 21.4204C2.97168 22.2392 3.14273 22.9899 3.34799 23.7405C3.51904 24.4228 3.92957 24.5593 4.44272 24.1158C5.91376 22.9216 7.11112 21.4886 8.10322 19.885Z" fill="#FFF9DE"/>
<path d="M143.217 21.0166C143.08 20.4935 143.205 19.6746 143.593 18.5601C143.981 17.4455 144.551 16.1604 145.304 14.7047C146.079 13.2489 147.003 11.6795 148.075 9.99625C149.169 8.31306 150.355 6.62986 151.633 4.94666C151.45 4.78744 151.268 4.57135 151.085 4.2984C150.903 4.00271 150.766 3.70701 150.675 3.41131C150.606 3.11562 150.606 2.83129 150.675 2.55834C150.766 2.28539 150.971 2.0693 151.29 1.91008C151.769 1.70537 152.533 1.51203 153.582 1.33006C154.632 1.12535 155.738 0.966126 156.901 0.852396C158.087 0.715921 159.216 0.624938 160.288 0.579447C161.382 0.511209 162.203 0.488462 162.751 0.511208C163.298 0.556701 163.754 0.772787 164.119 1.15947C164.507 1.5234 164.781 1.93283 164.94 2.38775C165.123 2.81992 165.191 3.21797 165.146 3.58191C165.1 3.92309 164.929 4.07094 164.632 4.02545C164.176 3.95721 163.458 3.95721 162.477 4.02545C161.496 4.07094 160.436 4.16193 159.296 4.2984C158.155 4.41213 157.015 4.53723 155.875 4.67371C154.757 4.81019 153.822 4.93529 153.069 5.04902C152.91 5.48119 152.91 5.78826 153.069 5.97023C153.229 6.15219 153.4 6.30004 153.582 6.41377C153.765 6.50476 153.902 6.61849 153.993 6.75496C154.107 6.86869 154.027 7.0734 153.754 7.3691C153.594 7.55107 153.366 7.86951 153.069 8.32443C152.796 8.77935 152.465 9.33662 152.077 9.99625C152.921 9.79154 153.754 9.63232 154.575 9.51859C155.396 9.38211 156.148 9.27976 156.832 9.21152C157.539 9.14328 158.155 9.10916 158.68 9.10916C159.204 9.10916 159.604 9.14328 159.877 9.21152C160.196 9.3025 160.436 9.55271 160.596 9.96214C160.755 10.3488 160.846 10.7696 160.869 11.2245C160.892 11.6567 160.835 12.0434 160.698 12.3846C160.584 12.703 160.413 12.8281 160.185 12.7599C159.41 12.6007 158.543 12.5324 157.585 12.5552C156.65 12.5552 155.715 12.612 154.78 12.7258C153.845 12.8395 152.955 12.976 152.111 13.1352C151.29 13.2944 150.606 13.4423 150.059 13.5787C149.648 14.3294 149.249 15.1027 148.861 15.8988C148.497 16.6722 148.143 17.4455 147.801 18.2189C147.482 18.9923 147.197 19.7315 146.946 20.4366C146.718 21.1418 146.535 21.7786 146.398 22.3473C147.128 22.279 147.995 22.1767 148.998 22.0402C150.002 21.9265 151.005 21.8241 152.009 21.7331C153.012 21.6422 153.959 21.5853 154.848 21.5625C155.738 21.5171 156.422 21.5512 156.901 21.6649C157.471 21.8014 157.939 22.0857 158.304 22.5179C158.668 22.9728 158.919 23.4163 159.056 23.8485C159.193 24.3034 159.193 24.6787 159.056 24.9744C158.919 25.2929 158.634 25.3839 158.201 25.2474C157.904 25.1564 157.437 25.0995 156.798 25.0768C156.16 25.054 155.43 25.054 154.609 25.0768C153.788 25.1223 152.921 25.1792 152.009 25.2474C151.097 25.3156 150.218 25.3952 149.375 25.4862C148.531 25.5772 147.767 25.6682 147.083 25.7592C146.398 25.8502 145.885 25.9298 145.543 25.998C145.292 26.0662 145.053 25.9639 144.825 25.6909C144.619 25.4407 144.448 25.1223 144.311 24.7356C144.197 24.3717 144.14 23.985 144.14 23.5756C144.14 23.1661 144.232 22.8477 144.414 22.6202C144.14 22.3928 143.89 22.1426 143.661 21.8696C143.456 21.6194 143.308 21.3351 143.217 21.0166Z" fill="#FFF9DE"/>
</svg>
