<svg width="286" height="40" viewBox="0 0 286 40" fill="none" xmlns="http://www.w3.org/2000/svg">
<path d="M271.962 18.0727C272.106 17.8329 272.25 17.5931 272.537 17.1614C270.139 17.737 269.036 16.5859 268.269 14.8113C268.029 14.1878 268.029 13.6123 268.461 13.1326C270.571 10.4948 273.017 8.19261 275.559 5.98638C276.998 4.69143 278.437 3.44443 279.876 2.19743C280.211 1.90966 279.971 1.76577 279.828 1.52597C281.075 1.43004 282.13 1.76577 282.993 2.58112C283.377 2.96481 283.808 3.49239 282.801 3.63627C282.274 3.73219 282.178 4.25977 281.89 4.54754C279.732 6.70581 277.621 8.81611 275.511 10.9744C275.271 11.2142 275.079 11.5499 274.792 11.8856C276.23 11.6938 279.3 9.67942 279.396 8.86407C280.115 9.05592 280.691 8.72019 281.218 8.38446C281.938 7.95281 282.705 8.3365 282.753 9.19981C282.753 9.72738 282.801 10.159 283.281 10.5427C283.569 10.7825 283.521 11.406 283.137 11.3581C281.938 11.2142 281.41 12.1255 280.931 12.7969C278.676 15.9624 275.799 18.6482 273.832 22.0055C272.441 24.4036 271.146 26.8017 270.619 29.5355C270.379 30.7345 270.763 31.9335 271.674 32.7009C272.489 33.4204 273.449 32.9407 274.312 32.605C278.868 30.7825 282.465 25.4588 282.417 20.6146C282.417 20.2789 282.322 19.9432 282.226 19.6074C282.13 19.4156 281.842 19.2238 282.034 18.9839C282.226 18.6962 282.561 18.8401 282.849 18.936C285.679 19.8473 286.494 22.2933 285.727 25.5547C285.007 28.5762 282.993 30.7345 280.643 32.5571C279.156 33.7081 277.717 34.8112 275.895 35.3388C273.161 36.2021 271.051 35.1949 269.324 33.0846C267.07 30.3988 266.926 27.4731 268.461 24.3556C269.516 22.1974 270.619 20.0391 271.962 18.0727Z" fill="#0B333C"/>
<path d="M248.718 30.111C248.622 31.406 248.814 32.653 248.862 34.2357C250.109 33.0846 250.685 31.8856 251.212 30.7345C253.61 25.6026 255.481 20.2789 257.639 15.0511C258.598 12.653 259.653 10.3509 260.277 7.85688C260.421 7.32931 260.517 6.80173 260.565 6.27416C260.613 5.65066 260.756 5.26696 261.476 5.17104C262.051 5.07512 262.099 4.5955 262.051 4.11589C261.956 3.58831 262.195 3.49239 262.675 3.39647C265.553 2.91685 267.087 5.07512 266.224 7.61708C265.169 10.7346 264.018 13.8041 263.298 16.9696C262.147 21.9096 261.092 26.8496 261.955 31.9336C262.003 32.1734 262.051 32.4132 262.099 32.653C262.195 33.0846 262.579 33.5163 262.147 33.9479C261.716 34.3796 261.188 34.1877 260.661 34.0439C258.934 33.5642 257.783 31.7897 257.639 29.5834C257.639 28.7201 257.543 27.8089 257.495 26.7057C256.584 28.6242 255.816 30.3988 254.953 32.0774C254.234 33.5163 253.562 34.9551 252.411 36.1062C250.013 38.4084 246.032 37.3052 245.169 34.0918C244.498 31.7417 244.737 29.2957 245.025 26.9456C245.553 21.9096 246.752 17.0655 248.382 12.3173C249.198 9.87127 249.965 7.37727 250.685 4.88327C250.876 4.30773 251.068 3.78016 250.685 3.1087C250.397 2.53316 251.068 2.58112 251.404 2.62908C253.322 2.72501 254.186 3.92404 253.85 6.13027C253.37 9.39165 252.267 12.4612 251.404 15.5787C250.061 20.3269 249.006 25.171 248.718 30.111Z" fill="#0B333C"/>
<path d="M237.843 15.243C239.474 13.0367 239.522 10.5427 239.761 8.04873C237.075 10.5427 235.685 13.6602 234.102 16.6338C232.279 20.0871 231.032 23.7321 230.265 27.5211C229.977 28.912 229.929 30.3988 229.977 31.8376C230.073 33.1805 230.84 34.1877 232.327 34.6674C233.574 35.147 234.486 34.3316 235.157 33.6602C238.706 30.2069 241.488 26.37 242.831 21.8616C242.879 21.6218 242.879 21.382 242.879 21.1902C242.879 20.7106 242.735 20.183 243.406 20.0391C244.078 19.7993 244.366 20.3269 244.749 20.7585C247.004 23.3005 245.948 25.8424 244.557 28.3364C242.975 31.2141 240.912 33.9 238.322 36.0582C236.836 37.3052 234.438 37.6889 232.183 36.9695C226.716 35.147 224.941 32.3652 225.852 27.617C226.764 22.629 228.586 17.9768 231.032 13.4204C232.183 11.2142 233.43 9.10388 235.013 7.0895C235.541 6.37008 236.74 6.03435 236.596 4.9792C236.596 4.93123 236.932 4.78735 237.123 4.78735C239.09 4.69143 241.056 4.78735 242.879 5.55473C243.79 5.93842 244.27 6.56192 244.222 7.42523C244.078 10.3509 243.79 13.2765 242.159 15.9144C241.728 16.6338 241.104 17.0655 240.193 16.9696C239.234 16.8257 238.275 16.5379 237.603 15.8665C237.315 15.6266 237.699 15.4828 237.843 15.243Z" fill="#0B333C"/>
<path d="M181.059 35.099C180.868 34.6674 180.868 34.1398 180.388 33.7081C180.1 34.6674 179.812 35.5307 179.956 36.4419C180.1 37.4491 179.621 37.6889 178.757 37.4491C176.839 36.8736 175.88 35.3868 176.263 33.4683C176.455 32.4611 176.599 31.406 177.079 30.4947C177.606 29.4396 176.935 28.3364 177.366 27.2813C177.99 27.7129 178.182 27.1854 178.326 26.8017C178.949 25.3149 179.621 23.8281 180.196 22.2933C181.347 19.1278 182.786 16.0583 184.225 12.9888C184.8 11.7418 185.424 10.4468 186.095 9.05592C185.328 9.19981 184.992 9.53553 184.657 9.87127C182.882 11.7418 180.82 13.3245 179.621 15.6746C179.093 16.7298 178.23 16.49 177.414 15.9144C176.791 15.4348 176.167 15.0031 176.839 13.948C179.477 10.0152 182.69 6.70581 186.911 4.45162C187.246 4.25977 187.582 4.16385 187.918 4.01997C188.35 3.82812 188.781 3.68423 188.254 3.10869C188.014 2.77297 188.158 2.38927 188.589 2.4852C192.234 3.3485 196.407 2.725 199.093 6.22619C200.004 7.37727 200.148 9.72738 199.477 11.0223C198.086 13.7082 196.167 15.9144 194.057 17.9768C193.865 18.1686 193.769 18.3605 193.529 18.6482C194.968 18.936 196.311 19.3676 197.51 20.0391C200.628 21.8137 201.731 25.2669 200.1 28.3844C198.23 31.9335 195.448 34.6194 191.707 36.0103C189.549 36.8736 187.294 37.8808 184.8 37.7369C182.882 37.641 181.779 36.9216 181.059 35.099ZM197.51 22.4372C196.791 21.0943 195.352 21.1422 194.057 21.0463C193.338 21.0463 192.714 21.2381 192.091 21.43C189.836 22.0055 187.966 23.3484 185.999 24.4516C183.841 25.6986 182.211 27.3293 181.587 29.8232C181.251 31.1182 180.532 32.3652 182.067 33.3724L182.115 33.4204C182.402 34.9072 183.601 34.5714 184.465 34.4275C186.959 33.9479 189.213 32.8448 191.419 31.5499C193.529 30.3029 195.448 28.912 196.791 26.8496C197.702 25.5067 198.326 23.9719 197.51 22.4372ZM187.774 15.243C187.151 16.5859 186.239 17.7849 185.856 19.4156C188.733 17.1614 191.419 14.9072 193.721 12.2693C194.872 10.9264 195.975 9.53553 196.647 7.90484C197.079 6.94562 196.983 6.22619 195.784 5.98638C194.681 5.69862 193.625 5.60269 192.522 5.89046C192.187 5.93842 191.947 6.03435 191.851 6.37008C190.892 9.53553 189.117 12.2693 187.774 15.243Z" fill="#0B333C"/>
<path d="M165.171 28.0966C164.691 28.5283 163.972 28.7201 163.588 29.4396C164.548 29.7273 165.411 29.9671 166.274 30.159C169.344 30.8304 172.365 31.6937 175.339 32.7489C176.394 33.1326 177.593 35.7705 177.209 36.8256C177.018 37.4012 176.586 37.4971 176.154 37.2573C173.229 35.7225 170.111 34.9072 166.946 34.2837C164.931 33.852 162.869 33.6122 160.855 33.1806C160.423 33.0846 160.231 33.3724 160.183 33.7561C160.039 34.3796 159.895 35.0031 159.847 35.6266C159.704 36.4899 159.176 36.6817 158.456 36.5379C156.922 36.1542 156.154 34.8592 155.387 33.6602C155.195 33.3724 155.435 33.1326 155.627 32.8448C156.154 32.1254 156.586 31.406 155.579 30.6866C155.291 30.4947 155.147 30.159 155.531 29.9671C157.018 29.1997 157.018 27.665 157.353 26.37C158.696 20.9504 160.471 15.6746 162.293 10.3509C162.437 9.91923 162.581 9.43961 162.773 8.86407C161.91 9.29573 161.814 10.0631 161.478 10.7346C160.759 12.0775 160.135 12.3173 158.792 11.502C158.217 11.2142 156.922 11.1183 157.497 10.1111C158.169 8.91204 158.552 7.56912 159.608 6.56192C161.046 5.219 162.485 3.92404 164.308 3.10869C165.315 2.67704 165.507 1.62189 164.787 0.758584C164.691 0.566737 164.5 0.422852 164.644 0.183045C164.787 -0.0567626 165.027 -0.00880177 165.219 0.039162C166.514 0.32693 167.713 0.758584 168.48 1.95762C168.768 2.4852 169.344 2.38927 169.775 2.43723C172.509 2.91685 175.051 3.68423 176.97 5.8425C178.984 8.04873 179.464 10.5427 178.408 13.3245C177.066 16.7777 174.524 19.4156 172.03 21.9576C169.871 24.1638 167.521 26.1302 165.171 28.0966ZM162.773 22.9648C162.677 23.3005 162.533 23.5883 162.725 23.9719C162.917 23.876 163.109 23.7801 163.205 23.6842C166.226 21.0943 169.248 18.5043 171.742 15.4348C173.229 13.6123 174.763 11.8377 175.195 9.39165C175.531 7.56912 174.955 6.37008 173.373 5.69862C172.078 5.12308 170.687 4.97919 169.248 5.26696C168.912 5.36289 168.624 5.50677 168.48 5.89046C166.466 11.5499 164.5 17.2094 162.773 22.9648Z" fill="#0B333C"/>
<path d="M156.758 4.25977C157.381 4.97919 157.669 5.8425 157.621 6.89765C156.902 9.87127 156.134 12.8928 155.463 15.9144C154.168 21.7657 153.113 27.617 152.633 33.6122C152.537 34.7633 152.346 35.9144 152.202 37.0654C152.106 37.641 151.722 37.8328 151.146 37.8808C149.708 37.9287 148.509 36.6817 148.557 35.2909C148.7 32.5571 149.084 29.8712 149.468 27.1854C149.564 26.5139 149.372 26.37 148.7 26.5619C146.35 27.3293 144.24 28.6722 141.938 29.5834C141.65 29.6794 141.602 30.0151 141.506 30.2549C140.883 31.6458 140.307 33.0846 139.732 34.5235C139.252 35.5786 138.389 35.7705 137.382 35.4347C136.422 35.147 135.607 34.4755 134.888 33.7081C134.744 33.5163 134.6 33.2765 134.792 33.0367C134.935 32.7969 135.175 32.8448 135.367 32.9407C135.751 33.0846 135.991 32.9887 136.135 32.605C136.95 30.5906 137.765 28.6242 138.437 26.5139C138.868 25.2189 139.732 23.924 140.355 22.5811C142.034 19.0319 144.096 15.7226 146.111 12.4132C147.885 9.5835 149.804 6.89765 151.242 3.92404C151.434 3.54035 151.77 3.20462 151.578 2.67704C151.482 2.43723 151.722 2.29335 151.962 2.24539C153.545 1.81374 155.223 1.71781 156.134 3.63627C156.278 3.87608 156.566 4.01997 156.758 4.25977ZM151.674 14.7154C151.962 13.2286 152.489 11.7897 152.585 10.0152C148.988 14.5715 146.446 19.4156 143.904 24.4995C144.24 24.4516 144.336 24.4516 144.432 24.4036C146.302 23.9719 148.029 22.8209 149.995 22.677C150.235 22.677 150.235 22.4372 150.235 22.2453C150.715 19.7513 151.242 17.2094 151.674 14.7154Z" fill="#0B333C"/>
<path d="M117.735 35.099C117.543 34.6674 117.543 34.1398 117.064 33.7081C116.776 34.6674 116.488 35.5307 116.632 36.4419C116.776 37.4491 116.296 37.6889 115.433 37.4491C113.515 36.8736 112.555 35.3868 112.939 33.4683C113.131 32.4611 113.275 31.406 113.755 30.4947C114.282 29.4396 113.611 28.3364 114.042 27.2813C114.666 27.7129 114.858 27.1854 115.002 26.8017C115.625 25.3149 116.296 23.8281 116.872 22.2933C118.023 19.1278 119.462 16.0583 120.901 12.9888C121.476 11.7418 122.1 10.4468 122.771 9.05592C122.004 9.19981 121.668 9.53553 121.332 9.87127C119.558 11.7418 117.496 13.3245 116.296 15.6746C115.769 16.7298 114.906 16.49 114.09 15.9144C113.467 15.4348 112.843 15.0031 113.515 13.948C116.153 10.0152 119.366 6.70581 123.587 4.45162C123.922 4.25977 124.258 4.16385 124.594 4.01997C125.025 3.82812 125.457 3.68423 124.93 3.10869C124.69 2.77297 124.834 2.38927 125.265 2.4852C128.91 3.3485 133.083 2.725 135.769 6.22619C136.68 7.37727 136.824 9.72738 136.153 11.0223C134.762 13.7082 132.843 15.9144 130.733 17.9768C130.541 18.1686 130.445 18.3605 130.205 18.6482C131.644 18.936 132.987 19.3676 134.186 20.0391C137.304 21.8137 138.407 25.2669 136.776 28.3844C134.906 31.9335 132.124 34.6194 128.383 36.0103C126.224 36.8736 123.97 37.8808 121.476 37.7369C119.558 37.641 118.455 36.9216 117.735 35.099ZM134.186 22.4372C133.467 21.0943 132.028 21.1422 130.733 21.0463C130.013 21.0463 129.39 21.2381 128.766 21.43C126.512 22.0055 124.642 23.3484 122.675 24.4516C120.517 25.6986 118.886 27.3293 118.263 29.8232C117.927 31.1182 117.208 32.3652 118.743 33.3724L118.79 33.4204C119.078 34.9072 120.277 34.5714 121.141 34.4275C123.635 33.9479 125.889 32.8448 128.095 31.5499C130.205 30.3029 132.124 28.912 133.467 26.8496C134.378 25.5067 135.001 23.9719 134.186 22.4372ZM124.45 15.243C123.826 16.5859 122.915 17.7849 122.531 19.4156C125.409 17.1614 128.095 14.9072 130.397 12.2693C131.548 10.9264 132.651 9.53553 133.323 7.90484C133.754 6.94562 133.659 6.22619 132.459 5.98638C131.356 5.69862 130.301 5.60269 129.198 5.89046C128.862 5.93842 128.623 6.03435 128.527 6.37008C127.567 9.53553 125.793 12.2693 124.45 15.243Z" fill="#0B333C"/>
<path d="M83.9468 9.53553C84.0427 9.24777 84.1387 8.96 84.3305 8.28854C83.1315 9.53553 81.9804 10.255 81.5487 11.6938C81.4049 12.0775 81.0212 12.2693 80.6375 12.2214C79.5823 12.1255 78.6711 11.6938 77.9996 10.8785C77.7598 10.5907 77.8078 10.255 77.9996 9.96719C80.7334 6.60988 83.707 3.54035 88.1674 2.62908C94.2106 1.38208 98.8149 5.02716 99.0547 11.1662C99.2465 16.1542 97.6638 20.5667 94.5943 24.4516C91.237 28.7201 87.3521 32.4132 83.1315 35.7705C82.1243 36.5858 81.0212 37.2573 79.7262 37.641C78.8629 37.9287 78.1914 37.6889 77.52 37.0654C76.6087 36.2021 76.3209 35.051 75.9852 33.9479C75.8893 33.7081 75.9852 33.4204 76.0811 33.1806C77.7118 29.3916 78.3353 25.3149 79.7262 21.4779C81.1651 17.4971 82.5559 13.5163 83.9468 9.53553ZM82.46 25.5067C81.8365 27.617 81.3569 29.7273 80.6854 32.1254C81.1651 31.8376 81.3569 31.7417 81.5008 31.5978C85.6255 28.2885 89.3665 24.5954 92.484 20.3269C94.882 17.0175 96.3209 13.3725 96.129 9.15184C95.9852 6.89766 95.4096 5.8425 93.8748 5.36289C92.3401 4.93123 90.8053 5.12308 89.2705 5.50677C89.0787 5.55473 88.9348 5.69862 88.9828 5.93842C89.3665 7.37727 88.5032 8.52834 88.0715 9.77534C86.153 15.0031 84.0907 20.183 82.46 25.5067Z" fill="#0B333C"/>
<path d="M67.0513 15.4348C67.0992 14.7154 67.387 13.948 66.9074 13.1806C66.188 16.394 65.4685 19.6075 64.7491 22.8209C63.7899 27.2813 62.9266 31.7417 62.4949 36.298C62.447 36.9215 62.1592 37.2573 61.4877 37.1614C59.0417 36.7297 58.1304 36.0103 58.5141 33.5163C59.2335 28.7681 60.1448 24.0679 61.2 19.3676C62.0153 15.6746 62.9745 11.9816 63.8858 8.28854C64.0776 7.61708 64.1736 7.04154 63.8378 6.37008C63.5021 5.65065 63.7419 5.219 64.5573 5.07512C66.9553 4.64346 69.7371 5.31492 70.4565 6.94562C70.9841 8.09669 71.08 9.29573 71.0321 10.4948C70.9361 15.243 70.6963 19.9911 70.5525 24.7393C70.5045 26.7058 70.5525 28.6242 70.6963 30.5427C71.6076 26.5139 72.5189 22.4372 73.4781 18.4084C74.7251 13.1327 76.4997 8.09669 78.7539 3.20462C78.9937 2.725 79.1855 2.24539 78.3222 2.19743C77.9865 2.19743 78.0344 1.90966 77.9865 1.66985C77.9385 1.33412 78.0824 1.14228 78.4181 1.09431C79.7611 0.854505 81.056 0.566737 82.4469 0.806544C83.4061 0.998391 83.7419 1.66985 83.3102 2.58112C81.104 7.52115 78.8978 12.4612 77.6507 17.689C77.1232 19.8952 76.6915 22.0535 76.1639 24.2597C75.3966 27.5691 74.6292 30.8784 73.7659 34.1398C73.4781 35.2909 72.2311 35.8664 71.128 35.4827C70.1208 35.147 69.1616 34.7153 68.1544 34.3796C67.8186 34.2357 67.6748 34.0439 67.5309 33.7081C66.4278 31.1662 66.4278 28.4803 66.5237 25.7945C66.6676 22.3413 66.9074 18.888 67.0513 15.4348Z" fill="#0B333C"/>
<path d="M58.4463 4.25977C59.0698 4.97919 59.3576 5.8425 59.3096 6.89765C58.5902 9.87127 57.8228 12.8928 57.1513 15.9144C55.8564 21.7657 54.8012 27.617 54.3216 33.6122C54.2257 34.7633 54.0338 35.9144 53.89 37.0654C53.794 37.641 53.4103 37.8328 52.8348 37.8808C51.396 37.9287 50.1969 36.6817 50.2449 35.2909C50.3888 32.5571 50.7725 29.8712 51.1561 27.1854C51.2521 26.5139 51.0602 26.37 50.3888 26.5619C48.0387 27.3293 45.9283 28.6722 43.6262 29.5834C43.3384 29.6794 43.2905 30.0151 43.1945 30.2549C42.571 31.6458 41.9955 33.0846 41.42 34.5235C40.9403 35.5786 40.077 35.7705 39.0699 35.4347C38.1106 35.147 37.2953 34.4755 36.5759 33.7081C36.432 33.5163 36.2881 33.2765 36.4799 33.0367C36.6238 32.7969 36.8636 32.8448 37.0555 32.9407C37.4392 33.0846 37.679 32.9887 37.8229 32.605C38.6382 30.5906 39.4535 28.6242 40.125 26.5139C40.5567 25.2189 41.42 23.924 42.0435 22.5811C43.7221 19.0319 45.7845 15.7226 47.7988 12.4132C49.5734 9.5835 51.4919 6.89765 52.9307 3.92404C53.1226 3.54035 53.4583 3.20462 53.2665 2.67704C53.1705 2.43723 53.4103 2.29335 53.6501 2.24539C55.2329 1.81374 56.9115 1.71781 57.8228 3.63627C57.9667 3.87608 58.2544 4.01997 58.4463 4.25977ZM53.3624 14.7154C53.6501 13.2286 54.1777 11.7897 54.2736 10.0152C50.6765 14.5715 48.1346 19.4156 45.5926 24.4995C45.9283 24.4516 46.0243 24.4516 46.1202 24.4036C47.9907 23.9719 49.7173 22.8209 51.6837 22.677C51.9235 22.677 51.9235 22.4372 51.9235 22.2453C52.4031 19.7513 52.9307 17.2094 53.3624 14.7154Z" fill="#0B333C"/>
<path d="M28.2654 28.0966C27.7858 28.5283 27.0664 28.7201 26.6827 29.4396C27.6419 29.7273 28.5052 29.9671 29.3685 30.159C32.4381 30.8304 35.4596 31.6937 38.4332 32.7489C39.4884 33.1326 40.6874 35.7705 40.3037 36.8256C40.1119 37.4012 39.6802 37.4971 39.2486 37.2573C36.3229 35.7225 33.2054 34.9072 30.04 34.2837C28.0256 33.852 25.9633 33.6122 23.9489 33.1806C23.5172 33.0846 23.3254 33.3724 23.2774 33.7561C23.1335 34.3796 22.9896 35.0031 22.9417 35.6266C22.7978 36.4899 22.2702 36.6817 21.5508 36.5379C20.016 36.1542 19.2486 34.8592 18.4813 33.6602C18.2894 33.3724 18.5292 33.1326 18.7211 32.8448C19.2486 32.1254 19.6803 31.406 18.6731 30.6866C18.3853 30.4947 18.2415 30.159 18.6251 29.9671C20.112 29.1997 20.112 27.665 20.4477 26.37C21.7906 20.9504 23.5652 15.6746 25.3877 10.3509C25.5316 9.91923 25.6755 9.43961 25.8673 8.86407C25.004 9.29573 24.9081 10.0631 24.5724 10.7346C23.8529 12.0775 23.2295 12.3173 21.8865 11.502C21.311 11.2142 20.016 11.1183 20.5916 10.1111C21.263 8.91204 21.6467 7.56912 22.7019 6.56192C24.1407 5.219 25.5796 3.92404 27.4021 3.10869C28.4093 2.67704 28.6011 1.62189 27.8817 0.758584C27.7858 0.566737 27.5939 0.422852 27.7378 0.183045C27.8817 -0.0567626 28.1215 -0.00880177 28.3134 0.039162C29.6083 0.32693 30.8074 0.758584 31.5747 1.95762C31.8625 2.4852 32.4381 2.38927 32.8697 2.43723C35.6035 2.91685 38.1455 3.68423 40.0639 5.8425C42.0783 8.04873 42.5579 10.5427 41.5028 13.3245C40.1599 16.7777 37.6179 19.4156 35.1239 21.9576C32.9656 24.1638 30.6155 26.1302 28.2654 28.0966ZM25.8673 22.9648C25.7714 23.3005 25.6275 23.5883 25.8194 23.9719C26.0112 23.876 26.2031 23.7801 26.299 23.6842C29.3206 21.0943 32.3421 18.5043 34.8361 15.4348C36.3229 13.6123 37.8577 11.8377 38.2894 9.39165C38.6251 7.56912 38.0496 6.37008 36.4668 5.69862C35.1719 5.12308 33.781 4.97919 32.3421 5.26696C32.0064 5.36289 31.7186 5.50677 31.5747 5.89046C29.5604 11.5499 27.5939 17.2094 25.8673 22.9648Z" fill="#0B333C"/>
<path d="M10.6594 27.9527C11.4268 26.6578 12.2901 25.4108 12.8656 23.7801C11.9544 24.2597 11.187 24.5954 10.4676 25.0271C9.46038 25.6986 8.45319 25.6506 7.54192 24.9312C6.58269 24.2118 6.34288 23.1086 6.43881 21.9576C6.48677 21.7178 6.58269 21.5259 6.87046 21.5739C7.20619 21.5739 7.35007 21.7657 6.96638 22.3892C8.40523 21.6698 9.50834 21.0943 10.6594 20.5187C12.2901 19.7513 13.9688 18.888 15.6474 18.2166C17.1342 17.5931 19.3884 19.7034 19.1966 21.3341C18.9568 22.9648 18.0935 24.3556 17.5179 25.8904C15.9352 29.8712 14.8321 33.9479 14.1126 38.1206C13.9688 38.9359 13.5371 39.6074 12.6258 39.2717C11.7625 38.9359 10.4676 38.84 10.6594 37.3532C10.7553 36.1542 10.8992 34.9551 11.0911 33.7081C10.4196 33.852 10.1798 34.2837 9.89203 34.6194C8.50115 36.0582 6.96638 37.2573 4.85608 36.5858C2.60189 35.8664 1.11508 34.2357 0.491582 31.8856C-0.419686 28.4803 0.0599285 25.171 0.923235 21.8616C2.02635 17.5451 3.65704 13.4684 6.05511 9.72738C7.87765 6.84969 9.70019 3.972 12.7218 2.00558C12.482 1.90966 12.2901 1.8617 12.0983 1.76577C12.1462 1.71781 12.1942 1.66985 12.2421 1.66985C14.2086 1.478 16.175 1.28616 18.0455 2.24539C18.9568 2.725 19.3404 3.44443 19.2445 4.54754C19.0047 7.56912 18.4771 10.4948 17.1342 13.2286C16.223 15.195 14.88 15.5307 13.2973 14.1398C13.0575 13.9 12.7697 13.6602 13.0575 13.2286C14.3045 11.5979 14.6882 9.63146 15.0719 7.713C15.3117 6.51396 15.4556 5.36289 15.6474 3.972C14.6882 4.35569 14.2086 4.97919 13.681 5.55473C10.1318 9.24777 7.58988 13.5163 5.86327 18.3125C4.47239 22.1494 3.36927 25.9863 3.46519 30.111C3.46519 31.2621 3.705 32.3172 3.99277 33.3724C4.23258 34.3316 4.80812 34.5235 5.52754 33.9C7.58988 32.2213 9.26853 30.2069 10.6594 27.9527Z" fill="#0B333C"/>
<path d="M200.083 29.5435C199.891 28.8081 200.067 27.657 200.611 26.0902C201.154 24.5235 201.954 22.717 203.009 20.6706C204.096 18.6242 205.391 16.418 206.894 14.0519C208.429 11.6858 210.091 9.31971 211.882 6.95361C211.626 6.72979 211.37 6.42603 211.114 6.04234C210.859 5.62667 210.667 5.21101 210.539 4.79534C210.443 4.37968 210.443 3.98 210.539 3.5963C210.667 3.21261 210.955 2.90886 211.402 2.68504C212.074 2.39727 213.145 2.12548 214.616 1.86969C216.086 1.58192 217.637 1.3581 219.268 1.19823C220.931 1.00638 222.513 0.878487 224.016 0.814539C225.551 0.718615 226.702 0.68664 227.469 0.718614C228.237 0.782564 228.876 1.08632 229.388 1.62988C229.931 2.14147 230.315 2.71701 230.539 3.3565C230.795 3.96401 230.891 4.52356 230.827 5.03515C230.763 5.51476 230.523 5.7226 230.107 5.65865C229.468 5.56273 228.461 5.56273 227.086 5.65865C225.711 5.7226 224.224 5.85049 222.625 6.04234C221.026 6.20221 219.428 6.37807 217.829 6.56992C216.262 6.76176 214.951 6.93762 213.896 7.09749C213.672 7.705 213.672 8.13666 213.896 8.39245C214.12 8.64825 214.36 8.85608 214.616 9.01595C214.871 9.14385 215.063 9.30372 215.191 9.49557C215.351 9.65544 215.239 9.94321 214.855 10.3589C214.632 10.6147 214.312 11.0623 213.896 11.7018C213.513 12.3413 213.049 13.1247 212.505 14.0519C213.688 13.7641 214.855 13.5403 216.007 13.3804C217.158 13.1886 218.213 13.0447 219.172 12.9488C220.163 12.8529 221.026 12.8049 221.762 12.8049C222.497 12.8049 223.057 12.8529 223.441 12.9488C223.888 13.0767 224.224 13.4284 224.448 14.0039C224.672 14.5475 224.799 15.139 224.831 15.7785C224.863 16.386 224.783 16.9296 224.592 17.4092C224.432 17.8569 224.192 18.0327 223.872 17.9368C222.785 17.713 221.57 17.617 220.227 17.649C218.916 17.649 217.605 17.729 216.294 17.8888C214.983 18.0487 213.736 18.2405 212.553 18.4644C211.402 18.6882 210.443 18.896 209.676 19.0879C209.1 20.143 208.541 21.2301 207.997 22.3492C207.485 23.4364 206.99 24.5235 206.51 25.6106C206.062 26.6978 205.663 27.7369 205.311 28.7281C204.991 29.7193 204.736 30.6146 204.544 31.414C205.567 31.318 206.782 31.1742 208.189 30.9823C209.596 30.8224 211.003 30.6786 212.409 30.5507C213.816 30.4228 215.143 30.3428 216.39 30.3109C217.637 30.2469 218.596 30.2949 219.268 30.4547C220.067 30.6466 220.723 31.0463 221.234 31.6538C221.746 32.2933 222.098 32.9168 222.289 33.5243C222.481 34.1638 222.481 34.6913 222.289 35.107C222.098 35.5546 221.698 35.6825 221.09 35.4907C220.675 35.3628 220.019 35.2829 219.124 35.2509C218.229 35.2189 217.206 35.2189 216.054 35.2509C214.903 35.3148 213.688 35.3948 212.409 35.4907C211.13 35.5866 209.899 35.6985 208.716 35.8264C207.533 35.9543 206.462 36.0822 205.503 36.2101C204.544 36.338 203.824 36.4499 203.345 36.5458C202.993 36.6418 202.657 36.4979 202.337 36.1142C202.05 35.7625 201.81 35.3148 201.618 34.7713C201.458 34.2597 201.378 33.7161 201.378 33.1406C201.378 32.565 201.506 32.1174 201.762 31.7977C201.378 31.4779 201.027 31.1262 200.707 30.7425C200.419 30.3908 200.211 29.9911 200.083 29.5435Z" fill="#0B333C"/>
</svg>
