<svg width="27" height="28" viewBox="0 0 27 28" fill="none" xmlns="http://www.w3.org/2000/svg">
<path d="M25.2541 13.7675C25.2541 20.2359 20.0104 25.4796 13.542 25.4796C7.07366 25.4796 1.83 20.2359 1.83 13.7675C1.83 7.29916 7.07366 2.0555 13.542 2.0555C20.0104 2.0555 25.2541 7.29916 25.2541 13.7675Z" fill="#EFE3AF"/>
<path d="M12.1364 16.1279L15.8532 14.2888H15.8541C16.0051 14.2073 15.8486 13.9914 15.6995 13.9063L12.141 11.9702C11.9955 11.8869 11.4959 11.993 11.4959 12.1605V15.9358C11.4959 16.1014 11.991 16.2066 12.1364 16.1279Z" fill="#FF4400"/>
<path fill-rule="evenodd" clip-rule="evenodd" d="M26.997 13.7196C27.1519 21.1738 21.2346 27.3422 13.7804 27.497C6.32616 27.6519 0.157813 21.7346 0.00297086 14.2804C-0.151871 6.82616 5.76543 0.657813 13.2196 0.502971C20.6738 0.348129 26.8422 6.26543 26.997 13.7196ZM17.4865 8.82895C19.2771 8.82895 20.7283 10.2801 20.7283 12.0708V15.9285C20.7283 17.7191 19.2771 19.1703 17.4865 19.1703H9.19745C7.40679 19.1703 5.9556 17.7191 5.9556 15.9285V12.0708C5.9556 10.2801 7.40679 8.82895 9.19745 8.82895H17.4865Z" fill="#FF4400"/>
</svg>
